<?xml version="1.0" encoding="iso-8859-1"?>
<!-- Uploaded to: SVG Repo, www.svgrepo.com, Generator: SVG Repo Mixer Tools -->
<svg fill="#000000" height="800px" width="800px" version="1.1" id="Capa_1" xmlns="http://www.w3.org/2000/svg" xmlns:xlink="http://www.w3.org/1999/xlink" 
	 viewBox="0 0 441.224 441.224" xml:space="preserve">
<g>
	<g>
		<path d="M282.847,152.109c-5.216-2.914-8.456-8.426-8.456-14.385s3.24-11.472,8.456-14.385
			c6.948-3.882,11.265-11.222,11.265-19.155c0-4.444-2.546-8.296-6.252-10.198v-5.3c3.503-0.344,6.25-3.305,6.25-6.897V67.2
			c0-9.994-6.044-18.827-15.397-22.503c-7.663-3.01-15.659-5.393-23.771-7.083c-5.32-1.104-9.182-5.9-9.182-11.403V14.22
			c0-7.841-6.415-14.22-14.3-14.22h-21.7c-7.885,0-14.3,6.379-14.3,14.22v11.99c0,5.503-3.857,10.299-9.175,11.404
			c-8.089,1.684-16.089,4.066-23.776,7.083c-4.559,1.791-8.425,4.862-11.178,8.88c-2.761,4.026-4.221,8.736-4.221,13.623v14.589
			c0,3.592,2.747,6.553,6.25,6.897v5.302c-3.703,1.902-6.248,5.754-6.248,10.196c0,7.934,4.316,15.274,11.264,19.155
			c5.216,2.914,8.456,8.425,8.456,14.385s-3.24,11.472-8.455,14.385c-6.948,3.881-11.265,11.22-11.265,19.155v225.94
			c0,24.272,19.747,44.02,44.02,44.02h58.96c24.273,0,44.021-19.748,44.021-44.02v-225.94
			C294.112,163.33,289.797,155.99,282.847,152.109z M279.86,88.72v4h-118.5v-4H279.86z M209.76,8h21.7
			c3.475,0,6.301,2.79,6.301,6.22v0.004H203.46V14.22C203.46,10.79,206.286,8,209.76,8z M155.11,67.2
			c0-3.264,0.975-6.41,2.819-9.099c1.846-2.695,4.44-4.755,7.502-5.957c7.27-2.852,14.834-5.105,22.482-6.697
			c9.008-1.872,15.546-9.961,15.546-19.236v-3.986h34.301v3.986c0,9.276,6.542,17.366,15.553,19.236
			c7.668,1.598,15.229,3.851,22.474,6.697c6.271,2.463,10.323,8.374,10.323,15.056v13.52h-131V67.2z M286.112,397.204
			c0,19.861-16.159,36.02-36.021,36.02h-58.96c-19.861,0-36.02-16.159-36.02-36.02v-225.94c0-5.039,2.745-9.702,7.166-12.17
			c7.743-4.326,12.554-12.515,12.554-21.37s-4.811-17.043-12.554-21.369c-4.42-2.469-7.166-7.132-7.166-12.171
			c0-1.91,1.554-3.464,3.464-3.464h124.072c1.91,0,3.464,1.554,3.464,3.464c0,5.038-2.746,9.702-7.167,12.171
			c-7.743,4.326-12.554,12.514-12.554,21.369s4.811,17.043,12.555,21.37c4.42,2.469,7.166,7.132,7.166,12.17L286.112,397.204
			L286.112,397.204z"/>
		<path d="M264.561,161.224c-2.209,0-4,1.791-4,4s1.791,4,4,4c3.337,0,6.051,2.714,6.051,6.051v220.449c0,2.209,1.791,4,4,4
			s4-1.791,4-4v-220.45C278.612,167.527,272.309,161.224,264.561,161.224z"/>
		<path d="M264.561,55.224c-2.209,0-4,1.791-4,4s1.791,4,4,4c3.336,0,6.051,2.714,6.051,6.051v5.449c0,2.209,1.791,4,4,4
			s4-1.791,4-4v-5.449C278.612,61.527,272.309,55.224,264.561,55.224z"/>
	</g>
</g>
</svg>